HIERARCHY
ROOT Hips
{
	OFFSET	0.00	0.00	0.00
	CHANNELS 6 Xposition Yposition Zposition Zrotation Xrotation Yrotation
	JOINT LeftUpLeg
	{
		OFFSET	 0.126116	-0.065224	 0.014019
		CHANNELS 3 Zrotation Xrotation Yrotation
		JOINT LeftLeg
		{
			OFFSET	 0.000000	 0.569914	 0.000000
			CHANNELS 3 Zrotation Xrotation Yrotation
			JOINT LeftFoot
			{
				OFFSET	 0.000000	 0.544423	 0.000000
				CHANNELS 3 Zrotation Xrotation Yrotation
				JOINT LeftToeBase
				{
					OFFSET	 0.000000	 0.207117	 0.000000
					CHANNELS 3 Zrotation Xrotation Yrotation
					End Site
					{
						OFFSET	 0.000000	 0.207117	 0.000000
					}
				}
			}
		}
	}
	JOINT RightUpLeg
	{
		OFFSET	-0.124023	-0.065224	 0.008373
		CHANNELS 3 Zrotation Xrotation Yrotation
		JOINT RightLeg
		{
			OFFSET	 0.000000	 0.570047	 0.000000
			CHANNELS 3 Zrotation Xrotation Yrotation
			JOINT RightFoot
			{
				OFFSET	 0.000000	 0.544354	 0.000000
				CHANNELS 3 Zrotation Xrotation Yrotation
				JOINT RightToeBase
				{
					OFFSET	 0.000000	 0.207540	 0.000000
					CHANNELS 3 Zrotation Xrotation Yrotation
					End Site
					{
						OFFSET	 0.000000	 0.207540	 0.000000
					}
				}
			}
		}
	}
	JOINT Spine
	{
		OFFSET	 0.000184	 0.117403	 0.007763
		CHANNELS 3 Zrotation Xrotation Yrotation
		JOINT Spine1
		{
			OFFSET	 0.000000	 0.137269	 0.000000
			CHANNELS 3 Zrotation Xrotation Yrotation
			JOINT Spine2
			{
				OFFSET	 0.000000	 0.156879	 0.000000
				CHANNELS 3 Zrotation Xrotation Yrotation
				JOINT LeftShoulder
				{
					OFFSET	 0.080501	 0.160143	 0.002496
					CHANNELS 3 Zrotation Xrotation Yrotation
					JOINT LeftArm
					{
						OFFSET	 0.000000	 0.164363	 0.000000
						CHANNELS 3 Zrotation Xrotation Yrotation
						JOINT LeftForeArm
						{
							OFFSET	 0.000000	 0.364576	 0.000000
							CHANNELS 3 Zrotation Xrotation Yrotation
							JOINT LeftHand
							{
								OFFSET	 0.000000	 0.360812	 0.000000
								CHANNELS 3 Zrotation Xrotation Yrotation
								JOINT LeftHandIndex1
								{
									OFFSET	 0.000000	 0.086006	 0.000000
									CHANNELS 3 Zrotation Xrotation Yrotation
									JOINT LeftHandIndex2
									{
										OFFSET	 0.000000	 0.047237	 0.000000
										CHANNELS 3 Zrotation Xrotation Yrotation
										JOINT LeftHandIndex3
										{
											OFFSET	-0.004284	 0.038165	 0.000551
											CHANNELS 3 Zrotation Xrotation Yrotation
											End Site
											{
												OFFSET	-0.004284	 0.038165	 0.000551
											}
										}
									}
								}
							}
						}
					}
				}
				JOINT Neck
				{
					OFFSET	 0.000000	 0.176489	 0.000000
					CHANNELS 3 Zrotation Xrotation Yrotation
					JOINT Head
					{
						OFFSET	 0.000000	 0.077941	 0.001747
						CHANNELS 3 Zrotation Xrotation Yrotation
						End Site
						{
							OFFSET	 0.000000	 0.077941	 0.001747
						}
					}
				}
				JOINT RightShoulder
				{
					OFFSET	-0.080363	 0.159706	-0.000306
					CHANNELS 3 Zrotation Xrotation Yrotation
					JOINT RightArm
					{
						OFFSET	 0.000000	 0.164196	 0.000000
						CHANNELS 3 Zrotation Xrotation Yrotation
						JOINT RightForeArm
						{
							OFFSET	 0.000000	 0.365611	 0.000000
							CHANNELS 3 Zrotation Xrotation Yrotation
							JOINT RightHand
							{
								OFFSET	 0.000000	 0.360648	 0.000000
								CHANNELS 3 Zrotation Xrotation Yrotation
								JOINT RightHandIndex1
								{
									OFFSET	 0.000000	 0.069977	 0.000000
									CHANNELS 3 Zrotation Xrotation Yrotation
									JOINT RightHandIndex2
									{
										OFFSET	 0.000000	 0.052305	 0.000000
										CHANNELS 3 Zrotation Xrotation Yrotation
										JOINT RightHandIndex3
										{
											OFFSET	 0.009002	 0.042196	 0.000782
											CHANNELS 3 Zrotation Xrotation Yrotation
											End Site
											{
												OFFSET	 0.009002	 0.042196	 0.000782
											}
										}
									}
								}
							}
						}
					}
				}
			}
		}
	}
}
MOTION
Frames:    7
Frame Time: 0.03333334
-0.015632	 1.255359	 0.109669	 4.347930	 0.249384	 174.024300	-170.934700	 15.992120	 7.278422	 2.430188	-24.697550	 1.114267	 46.068520	 46.643810	-62.936370	 4.912823	 28.009660	-6.307255	-173.102500	 4.883540	-1.373776	-1.764615	-19.661750	 1.858783	-57.911820	 58.613430	 64.567150	-0.376753	 31.171980	 1.633297	 1.235481	 4.291803	-2.956215	 8.394520	 6.005813	-1.523176	-6.750144	-3.333290	 7.574160	-112.565300	 3.130806	 88.314490	 51.249920	 39.497370	-15.789770	 4.544990	-0.237062	 0.477427	-33.647520	 1.729007	-48.130800	-8.016861	 12.509710	-5.833312	-7.228741	 12.664010	 2.804011	 4.963066	-4.014628	-0.346955	 1.520506	-13.918270	 1.351920	-1.965105	 8.738532	-26.430670	 109.128300	 0.672591	-88.594120	-12.574190	 62.780460	 12.092600	-5.128233	-0.495824	 41.479910	-23.455840	-2.329879	-62.382220	 2.014565	 8.306015	 8.960661	 15.202890	 20.247580	-6.343808	-8.239867	-2.131385	 0.447455
-0.014466	 1.254260	 0.096619	 4.329637	 0.226736	 174.068400	-170.871400	 16.315470	 6.524316	 2.524503	-25.535300	 1.172736	 46.514530	 46.903790	-63.429710	 4.912825	 28.009670	-6.307250	-173.282300	 4.283185	-0.395553	-1.772972	-19.747710	 1.810225	-58.959440	 59.076420	 65.798510	-0.380559	 31.176630	 1.637071	 1.261857	 4.286771	-3.356786	 8.329452	 5.949497	-1.515842	-6.677245	-3.279961	 7.550759	-112.543700	 3.103702	 88.310770	 51.132760	 39.436940	-15.762640	 4.654550	-0.236114	 0.186436	-33.714470	 1.596206	-48.320020	-7.991933	 12.530150	-5.839482	-7.228855	 12.659270	 2.803364	 4.963066	-4.014628	-0.346955	 1.498173	-13.884330	 1.363335	-1.955311	 8.835464	-26.502300	 109.101200	 0.693252	-88.604610	-12.459150	 62.614840	 12.077850	-5.206716	-0.566505	 41.703190	-23.390400	-2.315782	-61.863910	 1.993111	 8.248142	 8.960147	 15.202970	 20.260420	-6.347321	-8.239867	-2.131385	 0.447455
-0.013311	 1.253071	 0.083143	 4.305619	 0.196797	 174.126200	-170.800300	 16.638750	 5.757241	 2.618756	-26.361030	 1.238138	 46.974550	 47.151600	-63.931900	 4.912827	 28.009680	-6.307241	-173.478200	 3.638786	 0.621378	-1.775728	-19.776010	 1.749567	-60.018460	 59.519810	 67.058580	-0.385582	 31.182760	 1.642053	 1.296872	 4.279240	-3.884079	 8.242753	 5.877549	-1.505455	-6.580709	-3.210989	 7.519672	-112.515100	 3.067962	 88.305880	 51.014880	 39.386160	-15.757990	 4.798517	-0.234804	-0.197700	-33.817300	 1.384252	-48.578670	-7.959026	 12.557120	-5.847640	-7.229004	 12.653010	 2.802509	 4.963066	-4.014628	-0.346955	 1.468691	-13.839550	 1.378420	-1.942151	 8.963360	-26.596970	 109.065500	 0.720520	-88.618430	-12.328480	 62.443520	 12.075420	-5.313589	-0.659828	 41.997900	-23.334740	-2.331040	-61.195520	 1.964797	 8.171761	 8.959435	 15.203090	 20.277360	-6.351958	-8.239867	-2.131385	 0.447455
-0.012220	 1.251820	 0.069682	 4.276327	 0.160337	 174.197300	-170.724200	 16.945880	 5.002967	 2.708510	-27.136510	 1.307756	 47.429840	 47.375680	-64.419790	 4.912828	 28.009690	-6.307231	-173.682800	 2.972947	 1.642783	-1.773092	-19.748940	 1.678738	-61.052410	 59.929110	 68.306250	-0.391700	 31.190240	 1.648120	 1.339522	 4.270508	-4.524109	 8.136481	 5.789626	-1.491528	-6.463109	-3.126842	 7.481425	-112.480400	 3.024418	 88.299930	 50.895800	 39.347800	-15.772770	 4.976365	-0.233312	-0.665290	-33.949800	 1.097055	-48.900200	-7.918952	 12.589940	-5.857595	-7.229187	 12.645390	 2.801469	 4.963066	-4.014628	-0.346955	 1.432789	-13.785040	 1.396813	-1.925769	 9.119022	-26.712380	 109.022100	 0.753748	-88.635250	-12.186260	 62.271360	 12.086170	-5.442747	-0.772874	 42.356590	-23.293420	-2.374541	-60.391530	 1.930332	 8.078768	 8.958517	 15.203230	 20.297990	-6.357603	-8.239867	-2.131385	 0.447455
-0.011209	 1.250502	 0.056282	 4.241999	 0.117479	 174.279600	-170.644600	 17.230940	 4.264880	 2.792461	-27.852130	 1.380459	 47.877240	 47.572690	-64.889270	 4.912831	 28.009700	-6.307219	-173.893700	 2.290738	 2.663441	-1.765645	-19.672370	 1.598608	-62.055360	 60.306270	 69.535370	-0.398864	 31.198990	 1.655225	 1.389469	 4.259687	-5.270263	 8.010964	 5.687821	-1.473337	-6.325244	-3.028905	 7.436104	-112.439700	 2.973433	 88.293000	 50.773030	 39.322070	-15.803610	 5.184321	-0.231596	-1.212672	-34.102550	 0.736855	-49.282170	-7.872015	 12.628380	-5.869283	-7.229399	 12.636470	 2.800251	 4.963066	-4.014628	-0.346955	 1.390738	-13.721220	 1.418390	-1.906089	 9.301180	-26.847890	 108.971200	 0.792651	-88.654920	-12.027070	 62.099240	 12.103910	-5.595138	-0.904659	 42.776210	-23.266180	-2.444770	-59.456510	 1.889983	 7.969875	 8.957371	 15.203390	 20.322150	-6.364215	-8.239867	-2.131385	 0.447455
-0.010271	 1.249079	 0.042666	 4.202057	 0.067618	 174.375800	-170.561100	 17.496000	 3.528417	 2.871421	-28.516620	 1.456983	 48.323470	 47.745800	-65.345590	 4.912834	 28.009720	-6.307206	-174.114000	 1.580294	 3.703160	-1.753753	-19.550040	 1.508001	-63.047350	 60.660250	 70.772200	-0.407226	 31.209210	 1.663517	 1.447924	 4.246279	-6.136497	 7.862903	 5.572058	-1.450186	-6.164047	-2.916244	 7.382517	-112.392200	 2.913937	 88.284970	 50.638530	 39.309180	-15.846870	 5.429792	-0.229783	-1.851110	-34.271860	 0.295851	-49.731180	-7.817234	 12.673200	-5.882963	-7.229649	 12.626050	 2.798830	 4.963066	-4.014628	-0.346955	 1.341658	-13.646780	 1.443618	-1.882442	 9.513657	-27.006110	 108.911900	 0.838103	-88.677820	-11.842930	 61.923550	 12.125000	-5.774049	-1.057574	 43.265400	-23.253220	-2.541502	-58.369010	 1.842916	 7.842827	 8.955935	 15.203600	 20.350320	-6.371931	-8.239867	-2.131385	 0.447455
-0.009435	 1.247559	 0.029034	 4.156846	 0.010703	 174.484700	-170.476700	 17.735540	 2.805547	 2.943563	-29.116480	 1.535567	 48.760530	 47.891830	-65.779580	 4.912838	 28.009740	-6.307190	-174.339500	 0.853972	 4.745368	-1.737896	-19.386530	 1.408717	-64.011440	 60.986660	 71.997430	-0.416668	 31.220730	 1.672882	 1.513861	 4.230738	-7.108473	 7.694008	 5.442218	-1.421376	-5.981763	-2.789800	 7.321103	-112.338600	 2.846756	 88.275970	 50.491150	 39.309630	-15.897480	 5.707056	-0.227722	-2.571518	-34.444450	-0.219304	-50.240830	-7.755366	 12.723790	-5.898462	-7.229930	 12.614310	 2.797225	 4.963066	-4.014628	-0.346955	 1.286228	-13.562770	 1.472168	-1.854865	 9.753317	-27.185420	 108.844900	 0.889381	-88.703580	-11.632760	 61.746470	 12.145590	-5.975539	-1.228862	 43.816810	-23.255470	-2.661533	-57.141860	 1.789792	 7.699393	 8.954188	 15.203820	 20.382140	-6.380643	-8.239867	-2.131385	 0.447455
